HIERARCHY
ROOT Hips
{
	OFFSET 0.000000 8.830580 0.000000
	CHANNELS 6 Xposition Yposition Zposition Zrotation Yrotation Xrotation 
	JOINT Spine
	{
		OFFSET 0.000000 0.010000 0.000000
		CHANNELS 3 Zrotation Yrotation Xrotation
		JOINT Spine1
		{
			OFFSET 0.000000 2.459130 0.000000
			CHANNELS 3 Zrotation Yrotation Xrotation
			JOINT Neck
			{
				OFFSET 0.000000 2.484630 0.000000
				CHANNELS 3 Zrotation Yrotation Xrotation
				JOINT Head_virtual
				{
					OFFSET 0.000000 0.000000 0.000000
					CHANNELS 3 Zrotation Yrotation Xrotation
					JOINT Head
					{
						OFFSET 0.000000 0.927525 0.000000
						CHANNELS 3 Zrotation Yrotation Xrotation
						End Site
						{
							OFFSET 0.000000 0.000000 0.000000
						}
					}
				}
				JOINT LeftUpArm_virtual
				{
					OFFSET 0.000000 0.000000 0.000000
					CHANNELS 3 Zrotation Yrotation Xrotation
					JOINT LeftUpArm
					{
						OFFSET 1.248820 0.000000 0.000000
						CHANNELS 3 Zrotation Yrotation Xrotation
						JOINT LeftForeArm
						{
							OFFSET 2.597580 0.000000 0.000000
							CHANNELS 3 Zrotation Yrotation Xrotation
							JOINT LeftHand
							{
								OFFSET 2.455420 0.000000 0.000000
								CHANNELS 3 Zrotation Yrotation Xrotation
								End Site
								{
									OFFSET 0.000000 0.000000 0.000000
								}
							}
						}
					}
				}
				JOINT RightUpArm_virtual
				{
					OFFSET -0.000000 -0.000000 -0.000000
					CHANNELS 3 Zrotation Yrotation Xrotation
					JOINT RightUpArm
					{
						OFFSET -1.248820 -0.000000 -0.000000
						CHANNELS 3 Zrotation Yrotation Xrotation
						JOINT RightForeArm
						{
							OFFSET -2.597580 -0.000000 -0.000000
							CHANNELS 3 Zrotation Yrotation Xrotation
							JOINT RightHand
							{
								OFFSET -2.455420 -0.000000 -0.000000
								CHANNELS 3 Zrotation Yrotation Xrotation
								End Site
								{
									OFFSET 0.000000 0.000000 0.000000
								}
							}
						}
					}
				}
			}
		}
	}
	JOINT LeftUpLeg
	{
		OFFSET 1.271939 0.000000 0.000000
		CHANNELS 3 Zrotation Yrotation Xrotation
		JOINT LeftLowLeg
		{
			OFFSET 0.000000 -4.342910 0.000000
			CHANNELS 3 Zrotation Yrotation Xrotation
			JOINT LeftFoot
			{
				OFFSET 0.000000 -4.487670 0.000000
				CHANNELS 3 Zrotation Yrotation Xrotation
				JOINT LeftToeBase
				{
					OFFSET 0.000000 0.000000 1.515070
					CHANNELS 3 Zrotation Yrotation Xrotation
					End Site
					{
						OFFSET 0.000000 0.000000 0.000000
					}
				}
			}
		}
	}
	JOINT RightUpLeg
	{
		OFFSET -1.271939 0.000000 0.000000
		CHANNELS 3 Zrotation Yrotation Xrotation
		JOINT RightLowLeg
		{
			OFFSET 0.000000 -4.342910 0.000000
			CHANNELS 3 Zrotation Yrotation Xrotation
			JOINT RightFoot
			{
				OFFSET 0.000000 -4.487670 0.000000
				CHANNELS 3 Zrotation Yrotation Xrotation
				JOINT RightToeBase
				{
					OFFSET 0.000000 0.000000 1.515070
					CHANNELS 3 Zrotation Yrotation Xrotation
					End Site
					{
						OFFSET 0.000000 0.000000 0.000000
					}
				}
			}
		}
	}
}
MOTION
Frames: 8
Frame Time: 0.041667
-27.197642 9.370081 36.963241 -7.263636 -29.571357 21.303909 7.329739 -10.392219 4.539051 -26.938238 -2.701876 37.759618 0.000000 0.000000 0.000000 51.467279 -30.021254 9.106374 20.651431 19.931463 -69.335821 -9.701670 -10.850800 -5.146970 -17.089399 -13.074800 16.625799 0.000000 -36.803902 0.000000 21.708599 4.258660 -1.611500 36.034801 -2.210070 -8.520120 33.443501 15.101700 -22.407301 -180.000000 45.197006 -180.000000 -68.716202 30.166100 -30.333599 -0.523063 10.105929 -24.336319 0.000000 0.000000 52.081001 -9.174821 -6.763242 13.089205 0.000000 0.000000 -30.439900 6.330858 13.299225 -34.335539 0.000000 0.000000 14.463000 7.129265 -19.559875 21.386372 0.000000 0.000000 -14.661751 
-27.271812 9.402689 37.089409 -6.990618 -29.438903 21.692491 7.232307 -9.878890 4.700591 -27.323248 -2.673571 37.362804 0.000000 0.000000 0.000000 51.168268 -29.292424 8.991494 19.475082 21.038911 -69.180962 -11.427900 -9.059920 -3.505440 -16.325300 -14.730300 16.515200 0.000000 -33.755100 0.000000 20.447901 5.793170 -2.661790 36.505402 -2.291860 -7.428020 32.949001 15.630000 -23.325600 -180.000000 45.195999 -180.000000 -68.672798 29.935600 -30.341101 -0.272658 9.468280 -26.349673 0.000000 0.000000 54.735699 -13.256724 -6.484989 15.304787 0.000000 0.000000 -27.498800 6.587861 12.364639 -34.378196 0.000000 0.000000 15.412200 7.313852 -18.559615 20.677962 0.000000 0.000000 -13.943950 
-27.338276 9.433153 37.213784 -6.829840 -29.128890 22.234045 7.577665 -9.797715 3.781716 -27.762336 -2.051759 38.195395 0.000000 0.000000 0.000000 49.825704 -27.902452 6.982009 19.656819 22.042254 -67.522893 -10.951600 -8.612750 -4.043770 -18.168600 -14.037400 16.578800 0.000000 -31.284401 0.000000 19.229799 6.729730 -2.288830 37.361000 -1.698440 -5.752870 31.720100 15.459500 -26.609800 180.000000 41.481003 180.000000 -61.357800 19.609100 -25.910801 -0.026752 8.967690 -28.634708 0.000000 0.000000 57.229000 -11.952295 -6.069772 16.132004 0.000000 0.000000 -31.208700 6.688001 11.778548 -34.481844 0.000000 0.000000 16.130400 7.649727 -18.081962 19.987626 0.000000 0.000000 -13.722160 
-27.408257 9.464803 37.338802 -6.727613 -28.487376 22.631176 7.790060 -9.591947 3.574963 -28.034189 -1.995015 38.085814 0.000000 0.000000 0.000000 48.627278 -26.376515 6.530068 18.848106 23.234084 -67.070616 -11.365900 -8.187450 -3.746890 -18.996700 -13.156300 16.350201 0.000000 -29.314501 0.000000 18.477400 7.659470 -1.557630 37.024799 -1.946280 -8.481850 33.055099 14.065300 -24.050699 180.000000 41.712997 180.000000 -61.650200 19.748100 -25.958000 0.386318 8.525153 -30.829488 0.000000 0.000000 59.359699 -10.602561 -5.233064 13.816222 0.000000 0.000000 -30.560300 6.580167 11.756696 -34.131086 0.000000 0.000000 16.213800 7.784274 -18.310800 19.382677 0.000000 0.000000 -13.283480 
-27.479537 9.493975 37.466463 -6.396592 -27.728790 22.843947 7.856825 -9.413015 3.239465 -28.408030 -1.967470 38.042424 0.000000 0.000000 0.000000 47.265170 -24.627213 6.238597 18.080629 24.354773 -66.490217 -11.504600 -7.704540 -3.397330 -20.024000 -12.217000 15.901800 0.000000 -27.680300 0.000000 18.227200 8.345360 -0.321629 37.205700 -1.939790 -8.042710 32.882500 14.090400 -24.696899 -180.000000 41.929993 -180.000000 -61.885700 19.565100 -26.027700 0.707251 7.898467 -32.806499 0.000000 0.000000 60.646801 -9.589640 -3.346901 11.895475 0.000000 0.000000 -29.114400 6.428873 11.558179 -33.682209 0.000000 0.000000 16.254299 8.330515 -18.842039 18.451475 0.000000 0.000000 -13.007560 
-27.549982 9.521840 37.589307 -5.929147 -26.750993 22.922781 7.796159 -9.396214 2.867069 -28.634147 -1.993805 38.068063 0.000000 0.000000 0.000000 45.614949 -22.657856 5.770867 17.845716 25.274409 -65.647544 -11.543100 -7.240280 -3.375970 -21.120199 -11.079100 15.685700 0.000000 -26.441601 0.000000 18.252501 8.694850 0.978325 37.189899 -1.931200 -8.138440 32.961399 13.770900 -24.805599 180.000000 41.992004 -180.000000 -62.020802 19.415199 -26.018499 1.031958 7.094208 -34.687832 0.000000 0.000000 61.002800 -8.843140 -1.249470 10.682720 0.000000 0.000000 -28.487800 6.214682 11.235386 -33.237672 0.000000 0.000000 16.444300 8.344814 -19.399632 17.694445 0.000000 0.000000 -13.366270 
-27.617226 9.547250 37.715551 -5.503365 -25.893163 22.897508 7.706648 -9.215273 2.671960 -28.742564 -2.036020 37.812263 0.000000 0.000000 0.000000 44.177097 -20.980050 5.742268 17.537937 25.908613 -65.311853 -11.698800 -6.939700 -3.482740 -22.056999 -9.696290 15.854900 0.000000 -25.545700 0.000000 17.590500 8.754760 -0.056949 37.228100 -1.921130 -8.018670 32.836601 13.265900 -25.074400 -180.000000 42.018997 -180.000000 -62.232700 19.352100 -26.169800 1.367140 6.386583 -36.322073 0.000000 0.000000 60.596100 -7.816510 0.822163 9.964556 0.000000 0.000000 -28.145000 6.074710 10.843338 -32.659973 0.000000 0.000000 16.672600 8.503904 -19.733517 16.881407 0.000000 0.000000 -13.472980 
-27.684711 9.571823 37.844048 -5.080347 -25.184401 22.786145 7.657854 -8.837817 2.550299 -29.009350 -1.912234 37.617483 0.000000 0.000000 0.000000 43.403758 -19.811759 5.641011 17.484727 26.581050 -64.948585 -11.546600 -6.453020 -3.752170 -23.053400 -8.571840 16.215200 0.000000 -25.004200 0.000000 17.100500 8.255170 0.122419 37.522400 -1.912580 -9.165280 32.888302 11.927500 -24.694401 -180.000000 41.955994 180.000000 -61.562302 19.314400 -26.477900 1.652953 5.970928 -37.611494 0.000000 0.000000 59.274601 -6.225587 2.523305 9.129948 0.000000 0.000000 -27.287900 5.899568 10.579502 -32.020793 0.000000 0.000000 16.958099 8.828038 -20.062572 16.007959 0.000000 0.000000 -13.277570 
